<svg width="37" height="34" viewBox="0 0 37 34" fill="none" xmlns="http://www.w3.org/2000/svg">
<path d="M33.3333 30H36.6667V33.3333H0V30H3.33333V1.66667C3.33333 1.22464 3.50893 0.800716 3.82149 0.488155C4.13405 0.175595 4.55797 0 5 0H31.6667C32.1087 0 32.5326 0.175595 32.8452 0.488155C33.1577 0.800716 33.3333 1.22464 33.3333 1.66667V30ZM30 30V3.33333H6.66667V30H30ZM11.6667 15H16.6667V18.3333H11.6667V15ZM11.6667 8.33333H16.6667V11.6667H11.6667V8.33333ZM11.6667 21.6667H16.6667V25H11.6667V21.6667ZM20 21.6667H25V25H20V21.6667ZM20 15H25V18.3333H20V15ZM20 8.33333H25V11.6667H20V8.33333Z" fill="#737373"/>
</svg>
