<svg width="12" height="12" viewBox="0 0 12 12" fill="none" xmlns="http://www.w3.org/2000/svg">
<path d="M4.30598 10.0601C2.93398 10.8051 1.74948 10.9596 1.09498 10.3051C0.422979 9.63505 0.780979 7.87955 1.75148 6.11855C2.24451 5.22279 2.85378 4.39612 3.56348 3.66005C3.65698 3.56655 4.12598 3.09805 4.15698 3.09805C4.15698 3.09805 3.90698 3.25455 3.87598 3.25455C2.90098 3.80205 2.04448 4.79455 1.85748 5.01705C2.09401 3.96168 2.70257 3.02673 3.57185 2.38321C4.44114 1.7397 5.51303 1.43063 6.59148 1.51255C8.13898 0.81155 9.57848 0.64955 10.1875 1.25755C10.75 1.81905 10.7185 2.75505 10.25 3.87855C10.245 3.88905 10.241 3.90005 10.2365 3.91055C10.5748 4.55499 10.7511 5.27218 10.75 6.00005C10.75 6.19005 10.7385 6.37655 10.7155 6.56005H10.3135C10.2898 6.56096 10.2662 6.56146 10.2425 6.56155H4.34448V6.65505C4.37548 7.65355 5.25048 8.52705 6.31298 8.52705C7.06298 8.52705 7.78148 8.12155 8.09398 7.52855H10.484C10.2704 8.12025 9.93509 8.6606 9.49981 9.11476C9.06452 9.56892 8.53887 9.9268 7.95677 10.1653C7.37467 10.4038 6.74903 10.5177 6.12022 10.4996C5.4914 10.4814 4.87337 10.3317 4.30598 10.0601ZM4.00248 9.89955C3.08199 9.36768 2.37869 8.52805 2.01648 7.52855C1.43598 8.66955 1.28648 9.62355 1.78198 10.1186C2.18848 10.5246 3.00098 10.4306 4.00098 9.90055L4.00248 9.89955ZM10.086 3.64605C10.0885 3.64038 10.091 3.63471 10.0935 3.62905C10.4685 2.81805 10.5 2.13205 10.156 1.72605C9.72148 1.29205 8.88598 1.35105 7.89498 1.81005C8.80485 2.16866 9.57372 2.81295 10.086 3.64605ZM8.28148 5.37605V5.34555C8.21898 4.31555 7.40648 3.53555 6.40648 3.53555C5.34398 3.53555 4.43848 4.37805 4.37598 5.34555V5.37655H8.28148V5.37605Z" fill="#0A0A0A"/>
</svg>
