<svg width="34" height="34" viewBox="0 0 34 34" fill="none" xmlns="http://www.w3.org/2000/svg">
<path d="M16.6667 0C21.195 0 21.76 0.0166666 23.5367 0.0999999C25.3117 0.183333 26.52 0.461667 27.5833 0.875C28.6833 1.29833 29.61 1.87167 30.5367 2.79667C31.3842 3.62983 32.0399 4.63765 32.4583 5.75C32.87 6.81167 33.15 8.02167 33.2333 9.79667C33.3117 11.5733 33.3333 12.1383 33.3333 16.6667C33.3333 21.195 33.3167 21.76 33.2333 23.5367C33.15 25.3117 32.87 26.52 32.4583 27.5833C32.0411 28.6963 31.3852 29.7044 30.5367 30.5367C29.7033 31.3839 28.6955 32.0396 27.5833 32.4583C26.5217 32.87 25.3117 33.15 23.5367 33.2333C21.76 33.3117 21.195 33.3333 16.6667 33.3333C12.1383 33.3333 11.5733 33.3167 9.79667 33.2333C8.02167 33.15 6.81333 32.87 5.75 32.4583C4.63721 32.0408 3.62921 31.3849 2.79667 30.5367C1.94901 29.7036 1.29322 28.6958 0.875 27.5833C0.461667 26.5217 0.183333 25.3117 0.0999999 23.5367C0.0216666 21.76 0 21.195 0 16.6667C0 12.1383 0.0166666 11.5733 0.0999999 9.79667C0.183333 8.02 0.461667 6.81333 0.875 5.75C1.29206 4.63697 1.94801 3.62887 2.79667 2.79667C3.62945 1.94872 4.63738 1.29288 5.75 0.875C6.81333 0.461667 8.02 0.183333 9.79667 0.0999999C11.5733 0.0216666 12.1383 0 16.6667 0ZM16.6667 8.33333C14.4565 8.33333 12.3369 9.21131 10.7741 10.7741C9.21131 12.3369 8.33333 14.4565 8.33333 16.6667C8.33333 18.8768 9.21131 20.9964 10.7741 22.5592C12.3369 24.122 14.4565 25 16.6667 25C18.8768 25 20.9964 24.122 22.5592 22.5592C24.122 20.9964 25 18.8768 25 16.6667C25 14.4565 24.122 12.3369 22.5592 10.7741C20.9964 9.21131 18.8768 8.33333 16.6667 8.33333ZM27.5 7.91667C27.5 7.36413 27.2805 6.83423 26.8898 6.44353C26.4991 6.05283 25.9692 5.83333 25.4167 5.83333C24.8641 5.83333 24.3342 6.05283 23.9435 6.44353C23.5528 6.83423 23.3333 7.36413 23.3333 7.91667C23.3333 8.4692 23.5528 8.99911 23.9435 9.38981C24.3342 9.78051 24.8641 10 25.4167 10C25.9692 10 26.4991 9.78051 26.8898 9.38981C27.2805 8.99911 27.5 8.4692 27.5 7.91667ZM16.6667 11.6667C17.9928 11.6667 19.2645 12.1935 20.2022 13.1311C21.1399 14.0688 21.6667 15.3406 21.6667 16.6667C21.6667 17.9928 21.1399 19.2645 20.2022 20.2022C19.2645 21.1399 17.9928 21.6667 16.6667 21.6667C15.3406 21.6667 14.0688 21.1399 13.1311 20.2022C12.1935 19.2645 11.6667 17.9928 11.6667 16.6667C11.6667 15.3406 12.1935 14.0688 13.1311 13.1311C14.0688 12.1935 15.3406 11.6667 16.6667 11.6667Z" fill="#0A0A0A"/>
</svg>
