<svg width="20" height="20" viewBox="0 0 20 20" fill="none" xmlns="http://www.w3.org/2000/svg">
<path d="M1.66667 4.58333V3.3275C1.66819 3.10865 1.75575 2.89918 1.91043 2.74435C2.0651 2.58951 2.27448 2.50175 2.49333 2.5H17.5067C17.9633 2.5 18.3333 2.87083 18.3333 3.3275V16.6725C18.3318 16.8914 18.2443 17.1008 18.0896 17.2557C17.9349 17.4105 17.7255 17.4983 17.5067 17.5H2.49333C2.27401 17.4998 2.06375 17.4125 1.90874 17.2573C1.75374 17.1022 1.66667 16.8918 1.66667 16.6725V15.8333H16.6667V6.08333L10 12.0833L1.66667 4.58333ZM0 8.33333H4.16667V10H0V8.33333ZM0 12.5H6.66667V14.1667H0V12.5Z" fill="#737373"/>
</svg>
