<svg width="15" height="16" viewBox="0 0 15 16" fill="none" xmlns="http://www.w3.org/2000/svg">
<path d="M9.22976 12.3097L4.97143 9.98717C4.56267 10.3929 4.04294 10.6686 3.47775 10.7794C2.91256 10.8902 2.32723 10.8311 1.79553 10.6097C1.26384 10.3884 0.809586 10.0145 0.490051 9.53534C0.170516 9.05616 0 8.49311 0 7.91717C0 7.34122 0.170516 6.77817 0.490051 6.29899C0.809586 5.81982 1.26384 5.44597 1.79553 5.22458C2.32723 5.0032 2.91256 4.94418 3.47775 5.05498C4.04294 5.16577 4.56267 5.44142 4.97143 5.84717L9.22976 3.52467C9.08371 2.83945 9.1892 2.12455 9.52692 1.51071C9.86465 0.896871 10.412 0.425108 11.069 0.181694C11.726 -0.0617215 12.4486 -0.0605226 13.1048 0.185071C13.7609 0.430664 14.3067 0.90424 14.6424 1.5192C14.9781 2.13415 15.0812 2.8494 14.9329 3.53413C14.7846 4.21886 14.3948 4.82732 13.8347 5.24825C13.2746 5.66918 12.5817 5.87444 11.8828 5.8265C11.1838 5.77856 10.5254 5.48062 10.0281 4.98717L5.76976 7.30967C5.8547 7.71021 5.8547 8.12412 5.76976 8.52467L10.0281 10.8472C10.5254 10.3537 11.1838 10.0558 11.8828 10.0078C12.5817 9.95989 13.2746 10.1652 13.8347 10.5861C14.3948 11.007 14.7846 11.6155 14.9329 12.3002C15.0812 12.9849 14.9781 13.7002 14.6424 14.3151C14.3067 14.9301 13.7609 15.4037 13.1048 15.6493C12.4486 15.8949 11.726 15.8961 11.069 15.6526C10.412 15.4092 9.86465 14.9375 9.52692 14.3236C9.1892 13.7098 9.08371 12.9949 9.22976 12.3097Z" fill="#0A0A0A"/>
</svg>
