<svg width="17" height="17" viewBox="0 0 17 17" fill="none" xmlns="http://www.w3.org/2000/svg">
<path fill-rule="evenodd" clip-rule="evenodd" d="M5.30069 0.00242649C4.14591 0.0867743 3.12678 0.463296 2.232 1.13982C1.63415 1.59171 1.13232 2.15818 0.755786 2.80613C0.379254 3.45409 0.135568 4.17057 0.0389536 4.91373C-0.00140934 5.31037 -0.0104228 5.70958 0.0119971 6.10764C0.133694 7.51678 0.777537 8.82959 1.81721 9.78851C2.43716 10.3527 3.17286 10.7747 3.97287 11.025C4.33808 11.1337 4.55113 11.1789 4.66591 11.1694C4.76026 11.1601 4.85071 11.127 4.92874 11.0731C5.00678 11.0193 5.06984 10.9465 5.112 10.8616C5.143 10.7928 5.1599 10.7185 5.16169 10.643C5.16348 10.5676 5.15013 10.4926 5.12243 10.4224C5.0749 10.3133 4.99509 10.2214 4.89374 10.1589C4.78625 10.1142 4.67512 10.0787 4.56156 10.0529C3.90071 9.88939 3.28346 9.58373 2.75287 9.15721C2.51328 8.95333 2.29186 8.729 2.09113 8.48677C1.54794 7.80872 1.2076 6.99087 1.10939 6.12764C1.0833 5.88417 1.08678 5.35808 1.11721 5.10156C1.22573 4.18767 1.60876 3.32815 2.21575 2.6364C2.82274 1.94464 3.62519 1.45316 4.51721 1.22677C4.90852 1.12677 5.14417 1.09895 5.60504 1.09808C6.04069 1.09634 6.18939 1.11025 6.55287 1.18417C7.41332 1.3614 8.20393 1.78428 8.82898 2.40161C9.45403 3.01894 9.8867 3.80424 10.0746 4.66243C10.1311 4.9059 10.1763 5.0059 10.272 5.09199C10.3466 5.16624 10.4434 5.21417 10.5476 5.22851C10.6998 5.25982 10.8085 5.23199 10.9998 5.11112C11.452 4.82677 11.885 4.68503 12.379 4.65895C12.7692 4.63744 13.1595 4.69955 13.5238 4.84112C13.888 4.98268 14.2178 5.20045 14.4911 5.47982C14.7129 5.70156 14.8581 5.9059 14.9972 6.19286C15.1694 6.54677 15.2563 6.86503 15.2807 7.23286C15.3746 8.61895 14.4346 9.8459 13.0598 10.1337C12.9172 10.1642 12.7955 10.1711 12.2572 10.1816C11.6476 10.1929 11.619 10.1946 11.5337 10.2329C11.4185 10.2905 11.324 10.3826 11.2633 10.4963C11.2045 10.6473 11.2045 10.8149 11.2633 10.9659C11.324 11.0798 11.4185 11.1721 11.5337 11.2303C11.6181 11.2685 11.6468 11.2703 12.0833 11.2763C12.3372 11.2789 12.6563 11.2729 12.7929 11.2624C13.3337 11.2242 13.8604 11.0723 14.3386 10.8168C14.8168 10.5612 15.2357 10.2077 15.5681 9.77926C15.9004 9.35085 16.1387 8.85717 16.2673 8.33045C16.3959 7.80373 16.412 7.2558 16.3146 6.72243C16.1722 5.94473 15.7929 5.23007 15.2285 4.67634C15.057 4.50226 14.8672 4.34716 14.6624 4.21373C14.0381 3.78914 13.2992 3.56469 12.5442 3.57025C11.9833 3.56938 11.6833 3.62677 11.0207 3.8633C10.999 3.87112 10.9824 3.8433 10.945 3.73721C10.5915 2.75561 9.97481 1.89014 9.16243 1.23547C8.68958 0.86788 8.16623 0.57033 7.60852 0.351992C7.16917 0.191738 6.71283 0.0826136 6.24852 0.0267743C5.93315 0.0035584 5.61684 -0.00456682 5.30069 0.00242649ZM8.08765 9.17547C8.04 9.18591 7.99342 9.20075 7.94852 9.21982C7.90504 9.23982 7.42765 9.70416 6.53113 10.5989C5.47113 11.6581 5.17287 11.9659 5.14591 12.0268C5.08653 12.1564 5.07992 12.304 5.12747 12.4384C5.17502 12.5728 5.27302 12.6834 5.40069 12.7468C5.54852 12.8233 5.77461 12.8155 5.91634 12.7285C5.95548 12.7042 6.36156 12.3111 6.81808 11.8555L7.64852 11.0276L7.65287 13.5059L7.65721 15.9842L7.69808 16.0624C7.7416 16.1548 7.81106 16.2325 7.89799 16.2861C7.98492 16.3397 8.08557 16.3668 8.18765 16.3642C8.40504 16.3642 8.57547 16.2589 8.67721 16.0616L8.71808 15.9833L8.72243 13.505L8.72678 11.0276L9.55721 11.8555C10.0137 12.3111 10.4198 12.7042 10.4598 12.7276C10.6407 12.8398 10.8911 12.8207 11.0798 12.6807C11.2076 12.5868 11.2998 12.3537 11.2746 12.185C11.2476 11.9989 11.2685 12.0224 9.87808 10.6294C9.42256 10.1672 8.96049 9.71148 8.492 9.26243C8.37375 9.18172 8.22862 9.15051 8.08765 9.17547Z" fill="#0A0A0A"/>
</svg>
