<svg width="30" height="29" viewBox="0 0 30 29" fill="none" xmlns="http://www.w3.org/2000/svg">
<path d="M26.6667 2.66667V22.2947C26.6668 22.424 26.6293 22.5506 26.5588 22.6591C26.4882 22.7675 26.3877 22.8531 26.2693 22.9053L14.6667 28.04L3.064 22.9067C2.94525 22.8542 2.84439 22.7682 2.77381 22.6593C2.70322 22.5503 2.66599 22.4231 2.66667 22.2933V2.66667H0V0H29.3333V2.66667H26.6667ZM5.33333 2.66667V20.9933L14.6667 25.1267L24 20.9933V2.66667H5.33333ZM9.33333 8H20V10.6667H9.33333V8ZM9.33333 13.3333H20V16H9.33333V13.3333Z" fill="#737373"/>
</svg>
