<svg width="29" height="26" viewBox="0 0 29 26" fill="none" xmlns="http://www.w3.org/2000/svg">
<path d="M2.53894 2.53896C4.08569 0.991934 6.16027 0.0870792 8.3464 0.00596487C10.5325 -0.0751495 12.6685 0.673478 14.3256 2.10163C15.9813 0.675858 18.1144 -0.0719281 20.2979 0.00797999C22.4814 0.0878881 24.5541 0.989593 26.1012 2.53257C27.6482 4.07555 28.5553 6.14593 28.6409 8.32922C28.7266 10.5125 27.9844 12.6476 26.5629 14.307L16.2096 24.6936C15.7339 25.1695 15.096 25.4479 14.4236 25.4731C13.7513 25.4984 13.0943 25.2685 12.5843 24.8296L12.4376 24.695L2.08561 14.307C0.664928 12.649 -0.0776182 10.5159 0.00642903 8.33414C0.0904762 6.15237 0.994923 4.08272 2.53894 2.53896V2.53896ZM4.42428 4.4243C3.33393 5.51495 2.70541 6.98356 2.66917 8.52532C2.63292 10.0671 3.19173 11.5636 4.22961 12.7043L4.42428 12.9096L14.3243 22.8096L21.3949 15.7376L16.6816 11.0243L15.2683 12.4376C14.8969 12.8092 14.456 13.104 13.9707 13.3051C13.4854 13.5063 12.9652 13.6098 12.4399 13.61C11.3789 13.6102 10.3613 13.189 9.61094 12.439C8.86056 11.6889 8.43885 10.6715 8.4386 9.61057C8.43835 8.54962 8.85958 7.53202 9.60961 6.78163L12.4123 3.97763C11.2969 3.08746 9.90082 2.62388 8.47452 2.67007C7.04823 2.71625 5.68506 3.26917 4.62961 4.22963L4.42428 4.4243V4.4243ZM15.7389 8.19496C15.989 7.945 16.3281 7.80458 16.6816 7.80458C17.0352 7.80458 17.3742 7.945 17.6243 8.19496L23.2803 13.851L24.2243 12.9096C25.3329 11.8018 25.964 10.3042 25.9827 8.73705C26.0014 7.1699 25.4062 5.65765 24.3243 4.5237C23.2424 3.38975 21.7598 2.72412 20.1935 2.66917C18.6272 2.61421 17.1016 3.17429 15.9429 4.22963L15.7389 4.4243L11.4963 8.66696C11.2652 8.89792 11.1269 9.20569 11.1077 9.53185C11.0886 9.85801 11.1898 10.1799 11.3923 10.4363L11.4963 10.5523C11.7272 10.7834 12.035 10.9217 12.3612 10.9408C12.6873 10.96 13.0092 10.8588 13.2656 10.6563L13.3816 10.5523L15.7389 8.19496V8.19496Z" fill="#737373"/>
</svg>
