<svg width="28" height="28" viewBox="0 0 28 28" fill="none" xmlns="http://www.w3.org/2000/svg">
<path d="M0 28C0 25.171 1.12381 22.4579 3.12419 20.4575C5.12458 18.4571 7.83769 17.3333 10.6667 17.3333C13.4956 17.3333 16.2088 18.4571 18.2091 20.4575C20.2095 22.4579 21.3333 25.171 21.3333 28H18.6667C18.6667 25.8783 17.8238 23.8434 16.3235 22.3431C14.8232 20.8429 12.7884 20 10.6667 20C8.54494 20 6.5101 20.8429 5.00981 22.3431C3.50952 23.8434 2.66667 25.8783 2.66667 28H0ZM10.6667 16C6.24667 16 2.66667 12.42 2.66667 8C2.66667 3.58 6.24667 0 10.6667 0C15.0867 0 18.6667 3.58 18.6667 8C18.6667 12.42 15.0867 16 10.6667 16ZM10.6667 13.3333C13.6133 13.3333 16 10.9467 16 8C16 5.05333 13.6133 2.66667 10.6667 2.66667C7.72 2.66667 5.33333 5.05333 5.33333 8C5.33333 10.9467 7.72 13.3333 10.6667 13.3333ZM21.712 18.2707C23.5858 19.1146 25.176 20.4817 26.2914 22.2076C27.4069 23.9336 28.0002 25.945 28 28H25.3333C25.3336 26.4586 24.8887 24.95 24.0521 23.6554C23.2155 22.3609 22.0228 21.3355 20.6173 20.7027L21.7107 18.2707H21.712ZM20.7947 3.21733C22.138 3.77106 23.2866 4.71138 24.0947 5.91897C24.9028 7.12656 25.3339 8.54699 25.3333 10C25.3339 11.8298 24.6503 13.5936 23.4167 14.9451C22.1832 16.2966 20.4889 17.138 18.6667 17.304V14.62C19.6546 14.4785 20.5711 14.024 21.2817 13.3233C21.9924 12.6225 22.4596 11.7124 22.6149 10.7266C22.7702 9.74073 22.6053 8.73106 22.1445 7.84581C21.6837 6.96055 20.9513 6.24633 20.0547 5.808L20.7947 3.21733V3.21733Z" fill="#737373"/>
</svg>
