<svg width="16" height="16" viewBox="0 0 16 16" fill="none" xmlns="http://www.w3.org/2000/svg">
<path d="M6.67101 1.40255C5.73663 1.10008 4.72088 1.52081 4.27405 2.39541L3.73686 3.44686C3.67303 3.57179 3.57143 3.6734 3.44649 3.73723L2.39505 4.27441C1.52045 4.72125 1.09971 5.737 1.40219 6.67137L1.76583 7.79471C1.80903 7.92817 1.80903 8.07191 1.76583 8.20537L1.40219 9.32871C1.09971 10.2631 1.52045 11.2788 2.39505 11.7257L3.44649 12.2628C3.57143 12.3267 3.67303 12.4283 3.73686 12.5532L4.27405 13.6047C4.72088 14.4793 5.73663 14.9 6.67101 14.5976L7.79434 14.2339C7.92781 14.1907 8.07154 14.1907 8.20501 14.2339L9.32834 14.5976C10.2627 14.9 11.2785 14.4793 11.7253 13.6047L12.2625 12.5532C12.3263 12.4283 12.4279 12.3267 12.5529 12.2628L13.6043 11.7257C14.4789 11.2788 14.8997 10.2631 14.5972 9.32871L14.2335 8.20537C14.1903 8.07191 14.1903 7.92817 14.2335 7.79471L14.5972 6.67137C14.8997 5.737 14.4789 4.72125 13.6043 4.27441L12.5529 3.73723C12.4279 3.6734 12.3263 3.57179 12.2625 3.44686L11.7253 2.39541C11.2785 1.52081 10.2627 1.10008 9.32834 1.40255L8.20501 1.76619C8.07154 1.80939 7.92781 1.8094 7.79434 1.76619L6.67101 1.40255Z" fill="#33CFFF"/>
<path d="M5.44965 6.89533L4.50684 7.8382L7.33526 10.6666L12.0493 5.95257L11.1065 5.00977L7.33526 8.781L5.44965 6.89533Z" fill="white"/>
</svg>
