<svg width="20" height="20" viewBox="0 0 20 20" fill="none" xmlns="http://www.w3.org/2000/svg">
<g clip-path="url(#clip0_18_2263)">
<path d="M9.58301 3.00049C9.58301 3.00049 15.5832 2.99989 17.083 3.42822C17.9037 3.65893 18.5504 4.33454 18.7715 5.19092C19.1805 6.75043 19.1671 9.99507 19.167 10.0181C19.167 10.0181 19.1662 13.2635 18.7715 14.8286C18.5505 15.6851 17.9038 16.3605 17.083 16.5913C15.5832 17.0032 9.58301 17.0034 9.58301 17.0034C9.53575 17.0034 3.5936 17.0013 2.08398 16.5747C1.26306 16.344 0.615554 15.6686 0.394531 14.812C-0.000103935 13.2633 0 10.0015 0 10.0015C1.00467e-05 9.96893 0.00182866 6.74807 0.394531 5.19092C0.615618 4.33435 1.27887 3.64224 2.08398 3.41162C3.57798 3.00141 9.53568 3.00049 9.58301 3.00049ZM7.67285 13.0005L12.6621 10.0015L7.67285 7.00342V13.0005Z" fill="#404040"/>
</g>
<defs>
<clipPath id="clip0_18_2263">
<rect width="19.1667" height="20" rx="6" fill="white"/>
</clipPath>
</defs>
</svg>
